<svg xmlns="http://www.w3.org/2000/svg" width="760" height="460" font-family="Segoe UI, Arial, sans-serif">
  <rect width="760" height="460" fill="#ffffff" stroke="#888"/>
  <rect x="0" y="0" width="760" height="48" fill="#efe7da" stroke="#bbb"/>
  <text x="16" y="30" font-size="18" font-weight="bold">CafeExpress</text>
  <rect x="560" y="10" width="90" height="28" fill="#efe7da" stroke="#888"/>
  <text x="575" y="29" font-size="13">Mostrador</text>
  <rect x="655" y="10" width="80" height="28" fill="#fff" stroke="#888"/>
  <text x="668" y="29" font-size="13">Cocina</text>

  <text x="16" y="78" font-size="15" font-weight="bold">Pantalla de cocina</text>

  <!-- tickets -->
  <rect x="16" y="90" width="220" height="150" fill="#fff" stroke="#999"/>
  <rect x="16" y="90" width="6" height="150" fill="#1f5e8c"/>
  <text x="32" y="112" font-size="12" font-weight="bold">#1 Gregorio</text>
  <rect x="150" y="98" width="80" height="20" fill="#fff" stroke="#1f5e8c"/>
  <text x="156" y="113" font-size="10" fill="#1f5e8c">En prep.</text>
  <text x="32" y="138" font-size="11" fill="#555">1x Latte + Shot + Van</text>
  <text x="32" y="156" font-size="11" fill="#555">2x Espresso</text>
  <rect x="32" y="172" width="90" height="28" fill="#2e7d5b" stroke="#1f5e43"/>
  <text x="42" y="191" font-size="11" fill="#fff">Marcar listo</text>
  <rect x="130" y="172" width="80" height="28" fill="#fff" stroke="#b3261e"/>
  <text x="146" y="191" font-size="11" fill="#b3261e">Cancelar</text>

  <rect x="252" y="90" width="220" height="150" fill="#fff" stroke="#999"/>
  <rect x="252" y="90" width="6" height="150" fill="#9a6700"/>
  <text x="268" y="112" font-size="12" font-weight="bold">#2 Ana</text>
  <rect x="386" y="98" width="80" height="20" fill="#fff" stroke="#9a6700"/>
  <text x="392" y="113" font-size="10" fill="#9a6700">Pendiente</text>
  <text x="268" y="138" font-size="11" fill="#555">1x Capuchino</text>
  <rect x="268" y="172" width="90" height="28" fill="#2e7d5b" stroke="#1f5e43"/>
  <text x="288" y="191" font-size="11" fill="#fff">Preparar</text>
  <rect x="366" y="172" width="80" height="28" fill="#fff" stroke="#b3261e"/>
  <text x="382" y="191" font-size="11" fill="#b3261e">Cancelar</text>

  <!-- side panel observers -->
  <rect x="500" y="90" width="244" height="320" fill="#fff" stroke="#999"/>
  <text x="516" y="112" font-size="13" font-weight="bold">Notificaciones</text>
  <text x="516" y="134" font-size="10" fill="#555">#1: estamos preparando tu cafe</text>
  <text x="516" y="152" font-size="10" fill="#555">#1: recibido</text>
  <line x1="516" y1="170" x2="728" y2="170" stroke="#ddd"/>
  <text x="516" y="192" font-size="13" font-weight="bold">Estadisticas</text>
  <text x="516" y="214" font-size="11">Pendiente</text><text x="710" y="214" font-size="11">1</text>
  <text x="516" y="234" font-size="11">En preparacion</text><text x="710" y="234" font-size="11">1</text>
  <text x="516" y="254" font-size="11">Entregado</text><text x="710" y="254" font-size="11">0</text>
  <line x1="516" y1="268" x2="728" y2="268" stroke="#ddd"/>
  <text x="516" y="288" font-size="11">Facturado</text><text x="690" y="288" font-size="11">$0</text>

  <text x="16" y="450" font-size="10" fill="#999">Wireframe - Vista Cocina (KDS) con paneles del patron Observer</text>
</svg>
